HIERARCHY
ROOT Hips
{
	OFFSET 0.000000 0.000000 0.000000 
	CHANNELS 6 Xposition Yposition Zposition Zrotation Yrotation Xrotation
	JOINT LeftUpLeg
	{
		OFFSET 1.363060 -1.794630 0.839290 
		CHANNELS 3 Zrotation Yrotation Xrotation
		JOINT LeftLeg
		{
			OFFSET 2.448110 -6.726130 0.000000 
			CHANNELS 3 Zrotation Yrotation Xrotation
			JOINT LeftFoot
			{
				OFFSET 2.562200 -7.039590 0.000000 
				CHANNELS 3 Zrotation Yrotation Xrotation
				JOINT LeftToeBase
				{
					OFFSET 0.157640 -0.433110 2.322550 
					CHANNELS 3 Zrotation Yrotation Xrotation
					End Site
					{
						OFFSET 0.000000 0.000000 0.000000 
					}
				}
			}
		}
	}
	JOINT RightUpLeg
	{
		OFFSET -1.305520 -1.794630 0.839290 
		CHANNELS 3 Zrotation Yrotation Xrotation
		JOINT RightLeg
		{
			OFFSET -2.542530 -6.985550 0.000000 
			CHANNELS 3 Zrotation Yrotation Xrotation
			JOINT RightFoot
			{
				OFFSET -2.568260 -7.056230 0.000000 
				CHANNELS 3 Zrotation Yrotation Xrotation
				JOINT RightToeBase
				{
					OFFSET -0.164730 -0.452590 2.363150 
					CHANNELS 3 Zrotation Yrotation Xrotation
					End Site
					{
						OFFSET 0.000000 0.000000 0.000000 
					}
				}
			}
		}
	}
	JOINT Spine
	{
		OFFSET 0.028270 2.035590 -0.193380 
		CHANNELS 3 Zrotation Yrotation Xrotation
		JOINT Spine1
		{
			OFFSET 0.056720 2.048850 -0.042750 
			CHANNELS 3 Zrotation Yrotation Xrotation
			JOINT Neck1
			{
				OFFSET -0.054170 1.746240 0.172020 
				CHANNELS 3 Zrotation Yrotation Xrotation
				JOINT Head
				{
					OFFSET 0.104070 1.761360 -0.123970 
					CHANNELS 3 Zrotation Yrotation Xrotation
					End Site
					{
						OFFSET 0.000000 0.000000 0.000000 
					}
				}
			}
			JOINT LeftArm
			{
				OFFSET 3.362410 1.200890 -0.311210 
				CHANNELS 3 Zrotation Yrotation Xrotation
				JOINT LeftForeArm
				{
					OFFSET 4.983000 -0.000000 -0.000000 
					CHANNELS 3 Zrotation Yrotation Xrotation
					JOINT LeftHand
					{
						OFFSET 3.483560 -0.000000 -0.000000 
						CHANNELS 3 Zrotation Yrotation Xrotation
						JOINT LeftHandIndex1
						{
							OFFSET 0.715260 -0.000000 -0.000000 
							CHANNELS 3 Zrotation Yrotation Xrotation
							End Site
							{
								OFFSET 0.000000 0.000000 0.000000 
							}
						}
					}
				}
			}
			JOINT RightArm
			{
				OFFSET -3.136600 1.374050 -0.404650 
				CHANNELS 3 Zrotation Yrotation Xrotation
				JOINT RightForeArm
				{
					OFFSET -5.241900 -0.000000 -0.000000 
					CHANNELS 3 Zrotation Yrotation Xrotation
					JOINT RightHand
					{
						OFFSET -3.444170 -0.000000 -0.000000 
						CHANNELS 3 Zrotation Yrotation Xrotation
						JOINT RightHandIndex1
						{
							OFFSET -0.622530 -0.000000 -0.000000 
							CHANNELS 3 Zrotation Yrotation Xrotation
							End Site
							{
								OFFSET 0.000000 0.000000 0.000000 
							}
						}
					}
				}
			}
		}
	}
}
MOTION
Frames: 9
Frame Time: 0.041667
-0.707785 17.886584 -2.271270 1.468095 -5.713616 7.428634 -14.435615 -4.386196 -13.463877 0.252096 7.799891 24.497760 -2.003718 9.268001 -6.588369 1.272800 -7.150300 -20.161500 7.619808 12.226379 -15.354108 -1.606191 -9.841889 29.591048 -1.045533 2.189624 -6.028482 -0.024700 -1.013700 2.786600 0.963748 -0.484724 -1.193493 4.138728 0.121119 1.101226 6.737962 -9.214777 10.058101 3.478200 -4.536900 10.696600 -77.709929 2.476281 11.079584 10.841777 -21.668616 -2.566802 -0.034871 -1.909746 8.328177 -7.125000 0.000000 0.000000 74.610162 2.100825 7.811793 -14.054142 20.454558 -3.313481 0.730363 -0.668163 24.127947 7.125000 0.000000 0.000000 
-0.706368 17.888406 -2.265702 1.594139 -5.708391 7.506564 -14.559753 -4.511357 -13.449765 0.231005 7.764771 24.398551 -2.016827 9.314856 -6.604036 1.244800 -7.074200 -19.935500 7.462381 12.244463 -15.420029 -1.606377 -9.844574 29.582878 -1.048883 2.189487 -6.040034 -0.024600 -1.011500 2.780600 0.967149 -0.504850 -1.271647 4.221964 0.114938 0.989210 6.822750 -9.061383 10.200049 3.557300 -4.470600 10.747200 -77.797966 2.596679 10.931346 10.784402 -21.578640 -2.538170 -0.011338 -1.924724 8.715420 -7.125000 0.000000 0.000000 74.565054 1.859124 7.854313 -14.149160 20.588754 -3.354568 0.727171 -0.660556 23.844287 7.125000 0.000000 0.000000 
-0.705355 17.889722 -2.262260 1.596053 -5.685303 7.563210 -14.547519 -4.453159 -13.519784 0.217565 7.742404 24.327231 -1.993256 9.228659 -6.559265 1.257300 -7.108200 -20.036400 7.454468 12.271423 -15.461954 -1.611756 -9.852320 29.607321 -1.044953 2.157958 -6.107561 -0.022300 -0.964500 2.651200 1.007732 -0.545141 -1.347564 4.308722 0.104433 0.832315 6.705898 -8.813570 10.321532 3.548300 -4.372400 10.762100 -77.920554 2.751155 10.816540 10.778496 -21.567454 -2.530281 0.008633 -1.941022 9.074339 -7.125000 0.000000 0.000000 74.523104 1.676106 7.901215 -14.216580 20.682296 -3.384385 0.730360 -0.659598 23.679983 7.125000 0.000000 0.000000 
-0.704647 17.889925 -2.258818 1.724035 -5.716251 7.602449 -14.689837 -4.511047 -13.504355 0.207228 7.723537 24.282168 -2.006672 9.284277 -6.630422 1.249300 -7.086400 -19.971600 7.296627 12.369931 -15.495774 -1.614266 -9.858501 29.611295 -1.046282 2.144500 -6.149743 -0.024100 -1.002600 2.756100 0.998856 -0.530338 -1.401597 4.369063 0.118915 0.720963 6.533532 -8.620181 10.494667 3.496600 -4.298000 10.814400 -78.048224 2.867659 10.643029 10.697664 -21.446319 -2.504042 -0.021822 -1.907529 9.027931 -7.125000 0.000000 0.000000 74.540048 1.574877 7.786752 -14.247454 20.722206 -3.398722 0.734632 -0.663809 23.573546 7.125000 0.000000 0.000000 
-0.704242 17.890330 -2.255882 1.738217 -5.713073 7.590992 -14.707287 -4.544718 -13.452032 0.204195 7.715828 24.267066 -2.008728 9.297040 -6.679461 1.224500 -7.018500 -19.770300 7.283286 12.397162 -15.481020 -1.614732 -9.860794 29.615397 -1.039649 2.117449 -6.143736 -0.024000 -1.000400 2.750000 0.998026 -0.518540 -1.414321 4.369078 0.130706 0.662318 6.250313 -8.435264 10.502994 3.381600 -4.230600 10.772000 -78.114462 2.918607 10.344083 10.718511 -21.473680 -2.511061 -0.009587 -1.914085 9.721751 -7.125000 0.000000 0.000000 74.552271 1.483866 7.871587 -14.302009 20.790902 -3.422239 0.760840 -0.661802 23.379272 7.125000 0.000000 0.000000 
-0.704039 17.889621 -2.253452 1.663322 -5.728738 7.613024 -14.622382 -4.510420 -13.476921 0.202763 7.714684 24.256764 -2.001459 9.270075 -6.674853 1.216400 -6.996000 -19.703500 7.363758 12.448041 -15.466829 -1.616596 -9.861457 29.627967 -1.042426 2.126576 -6.187696 -0.025200 -1.025800 2.819800 1.016886 -0.508706 -1.411127 4.353587 0.137078 0.655941 6.201067 -8.252464 10.493307 3.381700 -4.149000 10.750200 -78.152831 2.838970 10.032497 10.731169 -21.477590 -2.506054 0.024418 -1.944167 10.561507 -7.125000 0.000000 0.000000 74.574908 1.460593 7.924540 -14.355604 20.858733 -3.444733 0.764058 -0.660562 23.246588 7.125000 0.000000 0.000000 
-0.703533 17.888102 -2.249200 1.669565 -5.688878 7.606143 -14.623836 -4.536647 -13.452789 0.206571 7.721236 24.276936 -1.996603 9.250620 -6.648299 1.224300 -7.017900 -19.768500 7.359711 12.492453 -15.394644 -1.615275 -9.856736 29.618617 -1.051872 2.151563 -6.255401 -0.035200 -1.210700 3.328600 1.007636 -0.520981 -1.433776 4.319647 0.134871 0.574503 6.270817 -8.040924 10.522098 3.438800 -4.045100 10.747900 -78.144797 2.949487 10.058355 10.733436 -21.485673 -2.503467 0.015193 -1.950572 10.673020 -7.125000 0.000000 0.000000 74.628850 1.302049 7.995413 -14.459742 20.994027 -3.487567 0.769504 -0.646140 23.021310 7.125000 0.000000 0.000000 
-0.700192 17.888406 -2.243935 1.667255 -5.638728 7.638949 -14.629985 -4.581744 -13.451388 0.207029 7.722380 24.281421 -1.994389 9.240242 -6.629294 1.202500 -6.957300 -19.588800 7.350349 12.463338 -15.405879 -1.612870 -9.854036 29.606919 -1.050056 2.139591 -6.263696 -0.034400 -1.197000 3.291000 1.005797 -0.524012 -1.435792 4.273399 0.135189 0.580206 6.167471 -7.850579 10.623044 3.405400 -3.958800 10.793900 -78.184743 2.905443 9.843765 10.752148 -21.506537 -2.508608 0.015646 -1.953070 11.459010 -7.125000 0.000000 0.000000 74.641324 1.272378 7.954970 -14.517024 21.064795 -3.509571 0.773823 -0.628494 22.822166 7.125000 0.000000 0.000000 
-0.698471 17.886584 -2.236949 1.629407 -5.685816 7.647127 -14.611416 -4.559683 -13.420474 0.207660 7.721194 24.280177 -2.010581 9.299846 -6.672232 1.222000 -7.011400 -19.749100 7.377860 12.558889 -15.364416 -1.611549 -9.851696 29.603567 -1.041876 2.094375 -6.327646 -0.032200 -1.157700 3.182900 1.013689 -0.489765 -1.438490 4.249713 0.156318 0.557750 5.975565 -7.603927 10.839871 3.329900 -3.850600 10.883900 -78.198246 2.915302 9.882057 10.730680 -21.478345 -2.507719 -0.011899 -1.924564 11.357560 -7.125000 0.000000 0.000000 74.666535 1.234822 7.951881 -14.549701 21.105923 -3.523336 0.777989 -0.625952 22.686317 7.125000 0.000000 0.000000 
